<svg height="512" viewBox="0 0 64 64" width="512" xmlns="http://www.w3.org/2000/svg"><g id="Layer_21" data-name="Layer 21"><path d="m10 14h44a4 4 0 0 1 4 4v32a0 0 0 0 1 0 0h-52a0 0 0 0 1 0 0v-32a4 4 0 0 1 4-4z" fill="#a0a8b2"/><path d="m10 18h44v28h-44z" fill="#c7e2fb"/><path d="m2 58v-4l4-4h52l4 4v4a4 4 0 0 1 -4 4h-52a4 4 0 0 1 -4-4z" fill="#c1c8d1"/><path d="m2 54v4a4 4 0 0 0 4 4h52a4 4 0 0 0 4-4v-4z" fill="#a0a8b2"/><circle cx="16" cy="16" fill="#f7d881" r="14"/><path d="m2 16a14 14 0 0 0 5.11 10.82 20.49 20.49 0 0 0 17.89-20.32c0-.43 0-.85-.06-1.28a14 14 0 0 0 -22.94 10.78z" fill="#f9e09a"/><circle cx="48" cy="24" fill="#c1c8d1" r="14"/><path d="m51 26h-6a6 6 0 0 0 -6 6v2.72a14 14 0 0 0 18 0v-2.72a6 6 0 0 0 -6-6z" fill="#698ec0"/><path d="m45 26v1a3 3 0 0 0 3 3 3 3 0 0 0 3-3v-1z" fill="#fddfb1"/><rect fill="#fddfb1" height="12" rx="5" width="10" x="43" y="14"/><path d="m59 49.59v-15.43a15 15 0 0 0 -21.16-21.16h-7.14a15 15 0 1 0 -25.7 13.16v23.43l-3.71 3.7a1 1 0 0 0 -.29.71v4a5 5 0 0 0 5 5h52a5 5 0 0 0 5-5v-4a1 1 0 0 0 -.29-.71zm-50-20.33v16.74a1 1 0 0 0 1 1h44a1 1 0 0 0 1-1v-8.74a15.5 15.5 0 0 0 2-1.26v13h-50v-21a15.5 15.5 0 0 0 2 1.26zm41-2.26a2 2 0 0 1 -4 0zm2-6a4 4 0 0 1 -8 0v-2a4 4 0 0 1 8 0zm-8 6.1a4 4 0 0 0 8 0 5 5 0 0 1 4 4.9v2.23a12.94 12.94 0 0 1 -16 0v-2.23a5 5 0 0 1 4-4.9zm4 11.9a14.81 14.81 0 0 0 5-.88v6.88h-42v-14.88a14.81 14.81 0 0 0 5 .88 15 15 0 0 0 14.7-12h3.18a14.81 14.81 0 0 0 -.88 5 15 15 0 0 0 15 15zm9.59 12 2 2h-55.18l2-2zm-9.59-40a13 13 0 0 1 10 21.29v-.29a7 7 0 0 0 -5.66-6.87 6 6 0 0 0 1.66-4.13v-2a6 6 0 0 0 -12 0v2a6 6 0 0 0 1.66 4.13 7 7 0 0 0 -5.66 6.87v.29a13 13 0 0 1 10-21.29zm-12 4a15.5 15.5 0 0 0 -1.29 2h-3.71c0-.33.05-.66.05-1s0-.67-.05-1zm-20-12a13 13 0 1 1 -13 13 13 13 0 0 1 13-13zm42 58h-52a3 3 0 0 1 -3-3v-3h58v3a3 3 0 0 1 -3 3z"/><path d="m39.08 5.65a15.57 15.57 0 0 0 -2-.82l-.63 1.9a14.3 14.3 0 0 1 1.73.71z"/><path d="m35 4.29a15.15 15.15 0 0 0 -2.09-.29l-.11 2a14.76 14.76 0 0 1 1.86.23z"/><path d="m30.92 6-.15-2a15 15 0 0 0 -2.12.3l.42 2a14.22 14.22 0 0 1 1.85-.3z"/><path d="m42.62 8a15.35 15.35 0 0 0 -1.69-1.32l-1.12 1.7a13.92 13.92 0 0 1 1.48 1.15z"/><path d="m24.92 34.35a15.57 15.57 0 0 0 2 .82l.63-1.9a14.3 14.3 0 0 1 -1.73-.71z"/><path d="m33.08 34 .15 2a15 15 0 0 0 2.12-.3l-.42-2a14.22 14.22 0 0 1 -1.85.3z"/><path d="m29 35.71a15.15 15.15 0 0 0 2.12.26l.11-2a14.76 14.76 0 0 1 -1.86-.23z"/><path d="m21.38 32a15.35 15.35 0 0 0 1.69 1.32l1.12-1.66a13.92 13.92 0 0 1 -1.48-1.15z"/><path d="m16 21a2 2 0 0 1 -2-2h-2a4 4 0 0 0 3 3.86v2.14h2v-2.14a4 4 0 0 0 -1-7.86 2 2 0 1 1 2-2h2a4 4 0 0 0 -3-3.86v-2.14h-2v2.14a4 4 0 0 0 1 7.86 2 2 0 0 1 0 4z"/></g></svg>